<?xml version="1.0" standalone="no"?>
<!DOCTYPE svg PUBLIC "-//W3C//DTD SVG 20010904//EN"
 "http://www.w3.org/TR/2001/REC-SVG-20010904/DTD/svg10.dtd">
<svg version="1.0" xmlns="http://www.w3.org/2000/svg"
 width="142.000000pt" height="142.000000pt" viewBox="0 0 142.000000 142.000000"
 preserveAspectRatio="xMidYMid meet">

<g transform="translate(0.000000,142.000000) scale(0.100000,-0.100000)"
fill="#000000" stroke="none">
<path d="M352 1068 c-9 -11 23 -49 158 -183 l170 -170 -171 -171 c-151 -152
-168 -172 -154 -184 14 -12 36 6 186 156 l169 169 170 -170 c135 -135 172
-167 182 -157 10 10 -22 47 -157 182 l-170 170 170 170 c151 151 168 171 155
185 -14 13 -34 -4 -185 -155 l-170 -170 -171 171 c-137 137 -173 168 -182 157z"/>
</g>
</svg>
