<?xml version="1.0" standalone="no"?>
<!DOCTYPE svg PUBLIC "-//W3C//DTD SVG 20010904//EN"
 "http://www.w3.org/TR/2001/REC-SVG-20010904/DTD/svg10.dtd">
<svg version="1.0" xmlns="http://www.w3.org/2000/svg"
 width="114.000000pt" height="80.000000pt" viewBox="0 0 114.000000 80.000000"
 preserveAspectRatio="xMidYMid meet">

<g transform="translate(0.000000,80.000000) scale(0.100000,-0.100000)"
fill="#000000" stroke="none">
<path d="M725 789 c-5 -7 61 -79 171 -190 l179 -179 -535 -2 c-468 -3 -535 -5
-535 -18 0 -13 67 -15 535 -18 l535 -2 -180 -180 c-135 -136 -177 -182 -168
-191 6 -6 18 -9 25 -7 7 3 98 94 202 202 l189 196 -190 198 c-105 108 -197
198 -206 200 -8 2 -18 -2 -22 -9z"/>
</g>
</svg>
