<svg xmlns="http://www.w3.org/2000/svg" width="88.875" height="19.996" viewBox="0 0 88.875 19.996"><g id="Grupo_2247" data-name="Grupo 2247" transform="translate(-1467.063 -2955.098)"><g id="Grupo_208" data-name="Grupo 208" transform="translate(1467.062 2962.821)"><g id="Grupo_199" data-name="Grupo 199" transform="translate(0 0.034)"><path id="Caminho_128" data-name="Caminho 128" d="M18.617,54.325a4.029,4.029,0,0,1-1.379-.724A6.755,6.755,0,0,1,16.1,52.36l1.586-1.31a4.945,4.945,0,0,0,1.345,1.345,2.85,2.85,0,0,0,1.586.379,3.874,3.874,0,0,0,1.931-.379,1.3,1.3,0,0,0,.586-1.241,1.113,1.113,0,0,0-.276-.724,3.456,3.456,0,0,0-.965-.517,12.617,12.617,0,0,0-2.068-.517,4.114,4.114,0,0,1-2.379-1.207,3.352,3.352,0,0,1-.793-2.31,3.13,3.13,0,0,1,.517-1.793,3.369,3.369,0,0,1,1.482-1.172,5.77,5.77,0,0,1,2.241-.414,6.3,6.3,0,0,1,2.655.483,4.364,4.364,0,0,1,1.62,1.448L23.65,45.706a7.933,7.933,0,0,0-.862-.793A2.882,2.882,0,0,0,22,44.5a3.219,3.219,0,0,0-1.069-.138,2.262,2.262,0,0,0-1.448.414A1.556,1.556,0,0,0,19,45.982a1.119,1.119,0,0,0,.621,1.069A5.3,5.3,0,0,0,21.2,47.6a16.781,16.781,0,0,1,2.275.621,3.213,3.213,0,0,1,1.413,1.034,2.992,2.992,0,0,1,.552,1.931,2.942,2.942,0,0,1-1.207,2.586,6.488,6.488,0,0,1-3.654.862A7.826,7.826,0,0,1,18.617,54.325Z" transform="translate(-16.1 -42.5)" fill="#fff"></path></g><g id="Grupo_200" data-name="Grupo 200" transform="translate(21.271 0.241)"><path id="Caminho_129" data-name="Caminho 129" d="M87.418,43.1v8.929a3.284,3.284,0,0,1-.552,2.068,2.081,2.081,0,0,1-1.758.689H83.454l-3.447-7.964v7.964H77.8V43.1h2.655l4.24,9.687h.034a.373.373,0,0,0,.379-.241,2.5,2.5,0,0,0,.1-.862V43.1Z" transform="translate(-77.8 -43.1)" fill="#fff"></path></g><g id="Grupo_201" data-name="Grupo 201" transform="translate(32.441 0)"><path id="Caminho_130" data-name="Caminho 130" d="M117.922,51.6h-4.585l-.793,2.723H110.2l2.861-9.343a8.984,8.984,0,0,1,.621-1.551,1.947,1.947,0,0,1,.793-.793,2.8,2.8,0,0,1,2.275,0,2.177,2.177,0,0,1,.793.793,6.747,6.747,0,0,1,.655,1.551l2.861,9.343h-2.344Zm-.517-1.758-1.413-4.826c-.069-.276-.207-.448-.379-.448s-.276.138-.379.448l-1.413,4.826Z" transform="translate(-110.2 -42.4)" fill="#fff"></path></g><g id="Grupo_202" data-name="Grupo 202" transform="translate(45.058 0.241)"><path id="Caminho_131" data-name="Caminho 131" d="M146.8,43.1h4.723a4.835,4.835,0,0,1,3.172.9,3.6,3.6,0,0,1,1.034,2.827,3.6,3.6,0,0,1-1.034,2.827,4.589,4.589,0,0,1-3.172.9h-2.379v4.24H146.8Zm4.792,5.619a1.83,1.83,0,0,0,1.276-.483,1.81,1.81,0,0,0,.483-1.413,1.945,1.945,0,0,0-.483-1.413,1.83,1.83,0,0,0-1.276-.483h-2.448v3.792Z" transform="translate(-146.8 -43.1)" fill="#fff"></path></g><g id="Grupo_203" data-name="Grupo 203" transform="translate(55.194 0.069)"><path id="Caminho_132" data-name="Caminho 132" d="M177.441,53.6a4,4,0,0,1-1.241-3.172V46.84a3.91,3.91,0,0,1,1.241-3.172,5.3,5.3,0,0,1,3.585-1.069,5.567,5.567,0,0,1,2.689.552,4.152,4.152,0,0,1,1.655,1.62l-1.689,1.172a3.123,3.123,0,0,0-1.069-1.138,2.928,2.928,0,0,0-1.586-.345,2.152,2.152,0,0,0-2.482,2.448v3.585a2.641,2.641,0,0,0,.586,1.827,2.509,2.509,0,0,0,1.9.621,2.815,2.815,0,0,0,2.827-1.586l1.655,1.241a5.644,5.644,0,0,1-1.1,1.241,4.029,4.029,0,0,1-1.379.724,6.752,6.752,0,0,1-2,.241A6.157,6.157,0,0,1,177.441,53.6Z" transform="translate(-176.2 -42.6)" fill="#fff"></path></g><g id="Grupo_204" data-name="Grupo 204" transform="translate(65.846 0.069)"><path id="Caminho_133" data-name="Caminho 133" d="M208.341,53.6a4,4,0,0,1-1.241-3.172V46.84a3.91,3.91,0,0,1,1.241-3.172,6.433,6.433,0,0,1,7.1,0,4,4,0,0,1,1.241,3.172v3.585a3.91,3.91,0,0,1-1.241,3.172,6.433,6.433,0,0,1-7.1,0Zm5.344-1.379a2.409,2.409,0,0,0,.621-1.793V46.84a2.409,2.409,0,0,0-.621-1.793,2.464,2.464,0,0,0-1.793-.621,2.409,2.409,0,0,0-1.793.621,2.463,2.463,0,0,0-.621,1.793v3.585a2.541,2.541,0,0,0,4.206,1.793Z" transform="translate(-207.1 -42.6)" fill="#fff"></path></g><g id="Grupo_205" data-name="Grupo 205" transform="translate(77.74 0.241)"><path id="Caminho_134" data-name="Caminho 134" d="M241.634,43.1h1.207a3.6,3.6,0,0,1,1.482.241,2.652,2.652,0,0,1,.965.793,10.233,10.233,0,0,1,.931,1.62l.965,1.965.965-1.965a8.849,8.849,0,0,1,.931-1.62,2.652,2.652,0,0,1,.965-.793,3.6,3.6,0,0,1,1.482-.241h1.207V54.787H250.6V45.548a.479.479,0,0,0-.345.172c-.1.138-.207.345-.414.655l-2.655,4.964L244.5,46.375a5.751,5.751,0,0,0-.414-.655.525.525,0,0,0-.345-.207v9.274H241.6V43.1Z" transform="translate(-241.6 -43.1)" fill="#fff"></path></g><g id="Grupo_206" data-name="Grupo 206" transform="translate(11.665 0.207)"><path id="Caminho_135" data-name="Caminho 135" d="M55.06,43.138l-1.931,4.206a.2.2,0,0,1-.345,0l-.9-2.1c-.069-.1-.207-.138-.276,0a1.694,1.694,0,0,1-1.448.793H50.1a.166.166,0,0,0-.138.241l1.827,3.62c0,.034.034.069.034.1v4.551a.222.222,0,0,0,.207.207h1.862a.222.222,0,0,0,.207-.207V49.964a.127.127,0,0,1,.034-.1l3.344-6.585A.188.188,0,0,0,57.3,43H55.267A.233.233,0,0,0,55.06,43.138Z" transform="translate(-49.935 -43)" fill="#fff"></path></g><g id="Grupo_207" data-name="Grupo 207" transform="translate(10.342 0)"><circle id="Elipse_16" data-name="Elipse 16" cx="1.241" cy="1.241" r="1.241" fill="#00f9ff"></circle></g></g><g id="Grupo_209" data-name="Grupo 209" transform="translate(1467.821 2955.098)"><path id="Caminho_136" data-name="Caminho 136" d="M18.3,20.3h1.9a1.877,1.877,0,0,1,1.276.379,1.435,1.435,0,0,1,.414,1.138,1.435,1.435,0,0,1-.414,1.138,1.877,1.877,0,0,1-1.276.379h-.965v1.689H18.3Zm1.931,2.275a.847.847,0,0,0,.517-.172.758.758,0,0,0,.207-.586.811.811,0,0,0-.207-.586.677.677,0,0,0-.517-.172h-1v1.517Z" transform="translate(-18.3 -20.197)" fill="#fff"></path><path id="Caminho_137" data-name="Caminho 137" d="M30.583,24.447a1.547,1.547,0,0,1-.483-1.276V21.724a1.662,1.662,0,0,1,.483-1.276A2.165,2.165,0,0,1,32,20a1.936,1.936,0,0,1,1.413.448,1.547,1.547,0,0,1,.483,1.276v1.448a1.662,1.662,0,0,1-.483,1.276A2.165,2.165,0,0,1,32,24.9,1.991,1.991,0,0,1,30.583,24.447Zm2.172-.552A.971.971,0,0,0,33,23.172V21.724a.969.969,0,1,0-1.931,0v1.448a1.027,1.027,0,0,0,1.689.724Z" transform="translate(-26.032 -20)" fill="#fff"></path><path id="Caminho_138" data-name="Caminho 138" d="M48.23,20.3l-1.1,4.723h-.276a1.55,1.55,0,0,1-.621-.1,1.078,1.078,0,0,1-.379-.31,2.928,2.928,0,0,1-.31-.655l-.345-.965-.241.931a2.929,2.929,0,0,1-.31.655.8.8,0,0,1-.379.31,1.44,1.44,0,0,1-.621.1h-.276L42.3,20.3h.931l.862,3.758a1.917,1.917,0,0,0,.138-.276l1.069-3,1.069,3a.66.66,0,0,0,.138.276l.862-3.758Z" transform="translate(-34.026 -20.197)" fill="#fff"></path><path id="Caminho_139" data-name="Caminho 139" d="M60.979,24.644a1.391,1.391,0,0,1-.379-1.1V21.782a1.583,1.583,0,0,1,.379-1.1,1.877,1.877,0,0,1,1.276-.379h1.586v.724H62.255a.877.877,0,0,0-.552.172.81.81,0,0,0-.172.552v.517h2v.724h-2v.517a.877.877,0,0,0,.172.552.81.81,0,0,0,.552.172h1.586v.793H62.255A1.817,1.817,0,0,1,60.979,24.644Z" transform="translate(-46.017 -20.197)" fill="#fff"></path><path id="Caminho_140" data-name="Caminho 140" d="M76.258,25.023h-1l-.31-1.034c-.069-.207-.138-.379-.172-.517a.93.93,0,0,0-.241-.276.735.735,0,0,0-.414-.1h-.689v1.931H72.5V20.3h1.9a1.881,1.881,0,0,1,1.276.345,1.328,1.328,0,0,1,.414,1.069,1.114,1.114,0,0,1-.241.758,1.134,1.134,0,0,1-.689.379.859.859,0,0,1,.517.379,4.238,4.238,0,0,1,.31.758ZM74.879,22.2a.667.667,0,0,0,0-.965.847.847,0,0,0-.517-.172H73.4v1.31h.965A.847.847,0,0,0,74.879,22.2Z" transform="translate(-53.815 -20.197)" fill="#fff"></path><path id="Caminho_141" data-name="Caminho 141" d="M85.379,24.644a1.391,1.391,0,0,1-.379-1.1V21.782a1.583,1.583,0,0,1,.379-1.1,1.877,1.877,0,0,1,1.276-.379h1.586v.724H86.655a.877.877,0,0,0-.552.172.809.809,0,0,0-.172.552v.517h2v.724h-2v.517a.877.877,0,0,0,.172.552.81.81,0,0,0,.552.172h1.586v.793H86.655A1.878,1.878,0,0,1,85.379,24.644Z" transform="translate(-62.005 -20.197)" fill="#fff"></path><path id="Caminho_142" data-name="Caminho 142" d="M96.8,20.3h1.758a2.567,2.567,0,0,1,1.241.241,1.483,1.483,0,0,1,.655.724,3.746,3.746,0,0,1,.207,1.379,3.746,3.746,0,0,1-.207,1.379,1.241,1.241,0,0,1-.655.724,3.048,3.048,0,0,1-1.241.241H96.8Zm1.758,3.965a1.288,1.288,0,0,0,.689-.138,1.019,1.019,0,0,0,.379-.517,2.576,2.576,0,0,0,.1-.965,3.574,3.574,0,0,0-.1-.965.859.859,0,0,0-.379-.517,1.367,1.367,0,0,0-.689-.138h-.793v3.241Z" transform="translate(-69.737 -20.197)" fill="#fff"></path><path id="Caminho_143" data-name="Caminho 143" d="M116.034,20.3H118.1a1.858,1.858,0,0,1,1.138.31,1.069,1.069,0,0,1,.379.931,1.112,1.112,0,0,1-.207.621.977.977,0,0,1-.586.379,1.046,1.046,0,0,1,.655.379,1.209,1.209,0,0,1,.241.793,1.089,1.089,0,0,1-.414.931,1.664,1.664,0,0,1-1.138.345H116V20.3Zm2.034,1.9a.726.726,0,0,0,.448-.172.583.583,0,0,0,0-.827.6.6,0,0,0-.448-.172h-1.1V22.2h1.1ZM118,24.265a1.024,1.024,0,0,0,.621-.172.6.6,0,0,0,.207-.517.7.7,0,0,0-.207-.517.837.837,0,0,0-.621-.172h-1.034V24.23H118Z" transform="translate(-82.318 -20.197)" fill="#fff"></path><path id="Caminho_144" data-name="Caminho 144" d="M128.751,22.989,127.2,20.3h1.069l1,1.827.965-1.827H131.3l-1.586,2.689v2.034h-.931V22.989Z" transform="translate(-89.657 -20.197)" fill="#fff"></path></g></g></svg>